<?xml version="1.0" standalone="no"?>
<!DOCTYPE svg PUBLIC "-//W3C//DTD SVG 20010904//EN"
 "http://www.w3.org/TR/2001/REC-SVG-20010904/DTD/svg10.dtd">
<svg version="1.0" xmlns="http://www.w3.org/2000/svg"
 width="460.000000pt" height="344.000000pt" viewBox="0 0 460.000000 344.000000"
 preserveAspectRatio="xMidYMid meet">

<g transform="translate(0.000000,344.000000) scale(0.100000,-0.100000)"
fill="#FF4500" stroke="none">
<path d="M2212 3220 c-92 -151 -91 -150 -116 -150 -17 0 -45 23 -101 85 -111
122 -130 118 -186 -37 -27 -78 -42 -107 -61 -117 -25 -14 -29 -12 -115 52 -92
68 -129 81 -153 52 -7 -8 -21 -65 -31 -126 -9 -61 -19 -112 -21 -114 -33 -27
-49 -25 -138 20 -99 50 -128 55 -155 25 -16 -18 -17 -32 -12 -132 9 -158 0
-166 -143 -128 -162 43 -177 27 -138 -143 26 -111 26 -112 7 -132 -17 -18 -33
-20 -136 -20 -116 0 -117 0 -132 -26 -14 -25 -12 -33 33 -138 47 -107 48 -112
32 -136 -9 -14 -24 -25 -34 -25 -44 0 -194 -34 -207 -47 -26 -26 -16 -58 45
-149 33 -49 60 -91 60 -94 0 -3 -19 -14 -42 -24 -58 -27 -150 -123 -182 -189
-50 -106 -45 -221 15 -342 55 -111 397 -522 519 -624 64 -54 84 -61 94 -35 13
35 -37 248 -113 485 -28 84 -49 154 -48 155 1 2 36 -38 77 -89 105 -127 233
-257 255 -257 16 0 17 6 12 57 -4 32 -13 85 -22 117 -9 32 -14 60 -12 62 2 2
22 -25 45 -61 53 -80 127 -146 215 -190 l68 -34 3 -66 c11 -223 253 -417 516
-414 129 2 129 3 60 84 -60 69 -170 225 -170 240 0 4 10 5 23 2 20 -5 146 -16
391 -32 l89 -6 -5 70 c-4 48 -14 88 -32 126 -34 69 -114 157 -175 193 -25 15
-39 28 -31 29 8 1 146 4 307 6 l292 4 -61 -36 c-126 -75 -207 -198 -216 -330
l-5 -73 119 7 c143 8 318 23 358 31 l28 6 -18 -32 c-25 -42 -109 -148 -172
-215 -28 -30 -47 -57 -41 -60 17 -11 173 -7 224 5 186 45 344 198 374 362 5
31 8 71 5 90 -4 32 -1 35 67 78 88 55 163 143 210 244 29 63 39 75 68 84 39
13 40 21 -8 -133 -36 -116 -53 -206 -41 -219 15 -15 97 55 224 192 32 35 60
62 61 60 2 -2 -3 -37 -11 -78 -25 -131 -54 -358 -54 -420 0 -85 19 -90 83 -20
99 108 374 554 426 690 34 91 35 223 3 294 -33 72 -84 129 -157 177 -36 23
-65 44 -65 47 0 2 25 40 55 83 56 80 66 116 40 142 -13 13 -163 47 -207 47
-10 0 -25 11 -34 25 -16 24 -15 29 32 136 45 105 47 113 33 138 -15 26 -16 26
-132 26 -103 0 -119 2 -136 20 -19 20 -19 21 7 132 39 170 24 186 -138 143
-91 -24 -108 -24 -131 -4 -15 14 -17 29 -12 130 5 101 4 116 -12 134 -27 30
-56 25 -155 -25 -77 -39 -93 -43 -114 -34 -28 13 -30 20 -46 139 -22 154 -48
163 -181 64 -84 -62 -90 -65 -115 -52 -21 10 -34 33 -63 116 -55 155 -75 159
-187 36 -102 -113 -107 -112 -188 21 -55 90 -64 100 -94 103 -30 3 -35 -1 -70
-58z m-353 -1326 c30 -21 61 -89 61 -134 0 -45 -31 -113 -61 -134 -73 -51
-159 25 -159 139 0 106 89 178 159 129z m891 -12 c54 -54 61 -148 16 -215 -76
-112 -214 2 -176 144 15 56 59 99 100 99 21 0 41 -9 60 -28z m529 -809 c-26
-32 -64 -62 -102 -79 -37 -17 -38 -17 -90 9 -29 15 -58 27 -65 27 -68 0 139
47 257 59 11 1 11 -2 0 -16z m-1750 -29 c39 -3 73 -10 76 -14 2 -4 -13 -15
-35 -25 -22 -10 -45 -24 -51 -31 -13 -16 -46 -10 -104 19 -46 23 -105 66 -105
77 0 4 33 1 74 -6 40 -7 106 -16 145 -20z"/>
</g>
</svg>
